<?xml version="1.0" encoding="UTF-8" standalone="no"?>
<!-- Created with Inkscape (http://www.inkscape.org/) -->

<svg
   xmlns:dc="http://purl.org/dc/elements/1.1/"
   xmlns:cc="http://creativecommons.org/ns#"
   xmlns:rdf="http://www.w3.org/1999/02/22-rdf-syntax-ns#"
   xmlns:svg="http://www.w3.org/2000/svg"
   xmlns="http://www.w3.org/2000/svg"
   xmlns:sodipodi="http://sodipodi.sourceforge.net/DTD/sodipodi-0.dtd"
   xmlns:inkscape="http://www.inkscape.org/namespaces/inkscape"
   version="1.0"
   width="987.65967"
   height="610.99451"
   id="svg2"
   inkscape:version="0.48.5 r10040"
   sodipodi:docname="golden_spiral.svg">
  <sodipodi:namedview
     pagecolor="#ffffff"
     bordercolor="#666666"
     borderopacity="1"
     objecttolerance="10"
     gridtolerance="10"
     guidetolerance="10"
     inkscape:pageopacity="0"
     inkscape:pageshadow="2"
     inkscape:window-width="640"
     inkscape:window-height="480"
     id="namedview18"
     showgrid="false"
     inkscape:zoom="58.283385"
     inkscape:cx="2.6558208"
     inkscape:cy="-1.7664419"
     inkscape:window-x="2712"
     inkscape:window-y="148"
     inkscape:window-maximized="0"
     inkscape:current-layer="svg2" />
  <metadata
     id="metadata7">
    <rdf:RDF>
      <cc:Work
         rdf:about="">
        <dc:format>image/svg+xml</dc:format>
        <dc:type
           rdf:resource="http://purl.org/dc/dcmitype/StillImage" />
        <dc:title />
      </cc:Work>
    </rdf:RDF>
  </metadata>
  <defs
     id="defs5" />
  <path
     d="m 36.355438,2354.617 c 6e-6,-36.8816 7.849457,-74.3511 22.956794,-108.4252 15.107337,-34.0742 37.460671,-65.3286 65.375388,-91.4078 27.91471,-26.0792 61.36884,-46.9627 97.84117,-61.0767 36.47233,-14.114 75.93416,-21.4473 115.41152,-21.4473"
     transform="matrix(2.022351,0,0,2.164687,-73.02346,-4485.255)"
     id="path1873"
     style="fill:none;stroke:#000000;stroke-width:0.95588177;stroke-linejoin:miter;stroke-miterlimit:4;stroke-opacity:1;stroke-dasharray:none"
     inkscape:connector-curvature="0"
     sodipodi:nodetypes="csssc" />
  <path
     d="M 36.355438,2354.0146 A 301.58487,281.75464 0 0 1 337.94031,2072.26"
     transform="matrix(-1.247009,0,0,1.334775,1031.657,-2765.459)"
     id="path1875"
     style="fill:none;stroke:#000000;stroke-width:1.55021226;stroke-linejoin:miter;stroke-miterlimit:4;stroke-opacity:1;stroke-dasharray:none" />
  <path
     d="M 36.355438,2354.0146 A 301.58487,281.75464 0 0 1 337.94031,2072.26"
     transform="matrix(0,-0.770297,-0.824511,0,2694.923,636.9008)"
     id="path2762"
     style="fill:none;stroke:#000000;stroke-width:2.50958943;stroke-linejoin:miter;stroke-miterlimit:4;stroke-opacity:1;stroke-dasharray:none" />
  <path
     d="M 36.355438,2354.0146 A 301.58487,281.75464 0 0 1 337.94031,2072.26"
     transform="matrix(0.473354,0,0,-0.50667,594.0855,1658.848)"
     id="path2764"
     style="fill:none;stroke:#000000;stroke-width:4.0838933;stroke-linejoin:miter;stroke-miterlimit:4;stroke-opacity:1;stroke-dasharray:none" />
  <path
     d="M 36.355438,2354.0146 A 301.58487,281.75464 0 0 1 337.94031,2072.26"
     transform="matrix(0.290281,0,0,0.310712,600.7412,-265.2473)"
     id="path2766"
     style="fill:none;stroke:#000000;stroke-width:6.6595006;stroke-linejoin:miter;stroke-miterlimit:4;stroke-opacity:1;stroke-dasharray:none" />
  <path
     d="M 36.355438,2354.0146 A 301.58487,281.75464 0 0 1 337.94031,2072.26"
     transform="matrix(-0.181793,0,0,0.194589,760.2218,-24.60904)"
     id="path2768"
     style="fill:none;stroke:#000000;stroke-width:10.63364792;stroke-linejoin:miter;stroke-miterlimit:4;stroke-opacity:1;stroke-dasharray:none" />
  <path
     d="M 36.355438,2354.0146 A 301.58487,281.75464 0 0 1 337.94031,2072.26"
     transform="matrix(-0.109629,0,0,-0.117346,757.5983,709.0538)"
     id="path2770"
     style="fill:none;stroke:#000000;stroke-width:17.63328171;stroke-linejoin:miter;stroke-miterlimit:4;stroke-opacity:1;stroke-dasharray:none" />
  <path
     d="M 36.355438,2354.0146 A 301.58487,281.75464 0 0 1 337.94031,2072.26"
     transform="matrix(0.06725143,0,0,-0.07198541,697.9484,615.0548)"
     id="path2772"
     style="fill:none;stroke:#000000;stroke-width:28.74464798;stroke-linejoin:miter;stroke-miterlimit:4;stroke-opacity:1;stroke-dasharray:none" />
  <path
     d="M 36.355438,2354.0146 A 301.58487,281.75464 0 0 1 337.94031,2072.26"
     transform="matrix(0.04134032,0,0,0.04425038,698.8904,341.5598)"
     id="path2774"
     style="fill:none;stroke:#000000;stroke-width:46.76108551;stroke-linejoin:miter;stroke-miterlimit:4;stroke-opacity:1;stroke-dasharray:none" />
  <path
     d="M 36.355438,2354.0146 A 301.58487,281.75464 0 0 1 337.94031,2072.26"
     transform="matrix(-0.02269401,0,0,0.02429152,720.4049,382.9198)"
     id="path2776"
     style="fill:none;stroke:#000000;stroke-width:85.18183899;stroke-linejoin:miter;stroke-miterlimit:4;stroke-opacity:1;stroke-dasharray:none" />
  <path
     d="M 36.355438,2354.0146 A 301.58487,281.75464 0 0 1 337.94031,2072.26"
     transform="matrix(0,-0.01567144,-0.01677462,0,754.3412,445.2738)"
     id="path2778"
     style="fill:none;stroke:#000000;stroke-width:123.35285187;stroke-linejoin:miter;stroke-miterlimit:4;stroke-opacity:1;stroke-dasharray:none" />
  <path
     d="M 36.355438,2354.0146 A 301.58487,281.75464 0 0 1 337.94031,2072.26"
     transform="matrix(0.00646946,0,0,-0.00692489,712.7925,459.0548)"
     id="path2780"
     style="fill:none;stroke:#000000;stroke-width:298.80615234;stroke-linejoin:miter;stroke-miterlimit:4;stroke-opacity:1;stroke-dasharray:none" />
  <path
     d="M 36.355438,2354.0146 A 301.58487,281.75464 0 0 1 337.94031,2072.26"
     transform="matrix(0,0.00507704,0.00737848,0,697.7376,441.2188)"
     id="path2782"
     style="fill:none;stroke:#000000;stroke-width:326.76928711;stroke-linejoin:miter;stroke-miterlimit:4;stroke-opacity:1;stroke-dasharray:none" />
</svg>
